<?xml version="1.0" encoding="UTF-8"?>
<svg width="243px" height="243px" viewBox="0 0 243 243" version="1.1" xmlns="http://www.w3.org/2000/svg" xmlns:xlink="http://www.w3.org/1999/xlink">
    <!-- Generator: Sketch 51.2 (57519) - http://www.bohemiancoding.com/sketch -->
    <title>admin-icon</title>
    <desc>Created with Sketch.</desc>
    <defs></defs>
    <g id="Page-1" stroke="none" stroke-width="1" fill="none" fill-rule="evenodd">
        <g id="admin-icon" fill-rule="nonzero">
            <rect id="Rectangle" fill="#FFFFFF" x="0" y="0" width="243" height="243" rx="8"></rect>
            <g id="iconmonstr-gear-thin" transform="translate(5.000000, 6.000000)" fill="#79AEC8" stroke="#000000">
                <path d="M51.5,37.1915833 C43.6119167,37.1915833 37.195875,43.6119167 37.195875,51.5 C37.195875,59.3880833 43.6119167,65.804125 51.5,65.804125 C59.3880833,65.804125 65.804125,59.3880833 65.804125,51.5 C65.804125,43.6119167 59.3880833,37.1915833 51.5,37.1915833 Z M59.6584583,103 L43.33725,103 C40.414625,94.7685833 39.9682917,91.3567083 35.728125,89.597125 C31.415,87.7989167 28.29925,90.163625 20.8532083,93.6827917 L9.31291667,82.1425 C13.0595417,74.2587083 15.179625,71.5635417 13.402875,67.271875 C11.6347083,63.0188333 8.28720833,62.6068333 0,59.66275 L0,43.33725 C8.17991667,40.4275 11.639,39.9811667 13.402875,35.728125 C15.16675,31.4750833 13.0981667,28.8056667 9.31291667,20.8532083 L20.8532083,9.31720833 C28.325,12.8707083 31.4364583,15.1753333 35.7238333,13.4071667 C39.9811667,11.639 40.3674167,8.32154167 43.3415417,0 L59.6584583,0 C62.585375,8.23141667 63.0402917,11.6475833 67.271875,13.402875 C71.5678333,15.1882083 74.6063333,12.8921667 82.1510833,9.31720833 L93.6827917,20.8532083 C89.9147083,28.7799167 87.8418333,31.4836667 89.597125,35.7238333 C91.361,39.9811667 94.7127917,40.388875 103,43.33725 L103,59.6670417 C94.8200833,62.5725 91.3567083,63.023125 89.5928333,67.2761667 C87.8632917,71.4605417 89.7816667,73.9754583 93.6870833,82.1425 L82.1510833,93.6827917 C74.7350833,90.163625 71.5635417,87.8032083 67.3190833,89.58425 C63.0789167,91.3438333 62.6840833,94.5025 59.6584583,103 Z" id="Shape"></path>
            </g>
            <g id="iconmonstr-user-5" transform="translate(47.000000, 88.000000)" fill="#417690" stroke="#000000">
                <path d="M117.958333,43.4645417 C117.958333,67.45975 98.5014167,86.922875 74.5,86.922875 C50.4985833,86.922875 31.0416667,67.45975 31.0416667,43.4645417 C31.0416667,19.4569167 50.4985833,0 74.5,0 C98.5014167,0 117.958333,19.4569167 117.958333,43.4645417 Z M108.037417,88.040375 C98.6876667,95.09925 87.0905,99.3395417 74.5,99.3395417 C61.8970833,99.3395417 50.2937083,95.0868333 40.9315417,88.0279583 C15.6512083,99.1595 0,133.820625 0,149 L149,149 C149,133.957208 132.858333,99.2960833 108.037417,88.040375 Z" id="Shape"></path>
            </g>
            <g id="iconmonstr-key-12" transform="translate(195.000000, 72.000000) rotate(-90.000000) translate(-195.000000, -72.000000) translate(129.000000, 39.000000)" fill="#F5DD5D" stroke="#000000">
                <path d="M70.422,16.5 C76.131,6.6385 86.7955,0 99,0 C117.2105,0 132,14.7895 132,33 C132,51.2105 117.2105,66 99,66 C86.7955,66 76.131,59.3615 70.422,49.5 L49.5,49.5 L41.217,41.2335 L33,49.5 L24.86,41.2335 L16.5,49.5 L0,32.824 L13.915,16.5 L70.422,16.5 Z M112.75,24.75 C108.196,24.75 104.5,28.446 104.5,33 C104.5,37.554 108.196,41.25 112.75,41.25 C117.304,41.25 121,37.554 121,33 C121,28.446 117.304,24.75 112.75,24.75 Z" id="Shape"></path>
            </g>
        </g>
    </g>
</svg>