<?xml version="1.0" encoding="UTF-8"?>
<svg width="100px" height="98px" viewBox="0 0 100 98" version="1.1" xmlns="http://www.w3.org/2000/svg" xmlns:xlink="http://www.w3.org/1999/xlink">
    <!-- Generator: Sketch 51.2 (57519) - http://www.bohemiancoding.com/sketch -->
    <title>Fill 51</title>
    <desc>Created with Sketch.</desc>
    <defs></defs>
    <g id="Page-1" stroke="none" stroke-width="1" fill="none" fill-rule="evenodd">
        <g id="GitHub-Mark" transform="translate(-53.000000, -284.000000)" fill="#FFFFFE">
            <path d="M103.002191,284 C75.3916983,284 53,306.388628 53,334.008331 C53,356.102251 67.3271258,374.843863 87.1984533,381.456382 C89.7004048,381.916864 90.6121589,380.372715 90.6121589,379.046527 C90.6121589,377.858484 90.5691806,374.714928 90.5446216,370.542962 C76.6349993,373.563723 73.7001949,363.838346 73.7001949,363.838346 C71.4254144,358.060834 68.1467836,356.522824 68.1467836,356.522824 C63.6064323,353.422246 68.49061,353.483644 68.49061,353.483644 C73.5098624,353.83668 76.1499584,358.637971 76.1499584,358.637971 C80.6104928,366.2789 87.8554075,364.071657 90.7042553,362.791517 C91.1585974,359.562005 92.4510165,357.357831 93.8785103,356.108391 C82.7747575,354.84667 71.1000073,350.554979 71.1000073,331.392794 C71.1000073,325.934549 73.0493805,321.467875 76.2481945,317.974352 C75.7324548,316.709562 74.0163924,311.622772 76.7393752,304.740103 C76.7393752,304.740103 80.9358999,303.395496 90.4893638,309.866801 C94.4771367,308.755505 98.7565482,308.202927 103.008331,308.181438 C107.257043,308.202927 111.533385,308.755505 115.527298,309.866801 C125.074622,303.395496 129.265007,304.740103 129.265007,304.740103 C131.994129,311.622772 130.278067,316.709562 129.765397,317.974352 C132.970351,321.467875 134.904375,325.934549 134.904375,331.392794 C134.904375,350.604097 123.211205,354.831321 112.073684,356.068482 C113.866493,357.612631 115.4659,360.664091 115.4659,365.327238 C115.4659,372.013434 115.404503,377.407212 115.404503,379.046527 C115.404503,380.384995 116.307047,381.941423 118.842767,381.453313 C138.698745,374.825443 153.013592,356.096111 153.013592,334.008331 C153.013592,306.388628 130.621893,284 103.002191,284" id="Fill-51"></path>
        </g>
    </g>
</svg>