<?xml version="1.0" encoding="UTF-8"?>
<svg width="298px" height="47px" viewBox="0 0 298 47" version="1.1" xmlns="http://www.w3.org/2000/svg" xmlns:xlink="http://www.w3.org/1999/xlink">
    <!-- Generator: Sketch 51.2 (57519) - http://www.bohemiancoding.com/sketch -->
    <title>pulseapi-logo</title>
    <desc>Created with Sketch.</desc>
    <defs></defs>
    <g id="Page-1" stroke="none" stroke-width="1" fill="none" fill-rule="evenodd">
        <g id="test-copy" transform="translate(-571.000000, -368.000000)" fill-rule="nonzero">
            <g id="pulseapi-logo" transform="translate(571.000000, 368.000000)">
                <polygon id="Shape-path" fill="#FFFFFF" points="0 0 298 0 298 47 0 47"></polygon>
                <polygon id="Shape" fill="#000000" points="12 0 177 0 177 47 12 47"></polygon>
                <path d="M168.914742,33.8789639 C168.633479,33.9664209 168.34118,34.0133707 168.046661,34.0183975 C167.085572,34.0183975 166.62828,33.6078431 166.62828,32.4149116 L166.62828,23.4369402 C166.62828,18.7194384 162.86918,16.4652626 158.428018,16.4652626 C155.040953,16.4652626 153.204032,16.875817 149.592197,18.3398693 L148.817125,23.0883563 L153.537313,23.5918664 L154.203875,21.2679739 C155.190072,20.8036252 156.278471,20.5983333 157.366169,20.6715081 C160.70673,20.6715081 160.753234,23.1890583 160.753234,25.3192931 L160.753234,26.0087146 C159.629223,25.8759028 158.497973,25.81381 157.366169,25.8228032 C152.645981,25.8228032 147.747526,27.0157347 147.747526,32.097313 C147.747526,36.3965142 151.13459,38 154.110867,38 C156.924289,37.9842393 159.490862,36.391894 160.753234,33.8789639 C161.024509,36.3965142 162.54365,38 165.287405,38 C166.584645,37.9860608 167.858942,37.6563679 169,37.0394578 L168.914742,33.8789639 Z M156.226813,33.7395304 C155.57192,33.818983 154.916558,33.5953185 154.44707,33.1321325 C153.977581,32.6689465 153.745326,32.0169077 153.816339,31.3614137 C153.816339,29.1149843 155.645509,28.5262648 157.753705,28.5262648 C158.750837,28.5484466 159.745268,28.6390333 160.729982,28.7973856 C160.582718,32.2290002 158.335009,33.7395304 156.226813,33.7395304 Z M148.297827,6 L139.368997,37.49649 L133.555957,37.49649 L142.477036,6 L148.297827,6 Z M136.299712,6 L127.363132,37.49649 L121.550092,37.49649 L130.478921,6 L136.299712,6 Z M111.497408,16.8448318 L117.697984,16.8448318 L117.697984,24.2580489 L111.497408,24.2580489 L111.497408,16.8448318 Z M111.497408,30.0755265 L117.697984,30.0755265 L117.697984,37.49649 L111.497408,37.49649 L111.497408,30.0755265 Z M102.498822,29.8044057 L107.149254,30.2614379 L105.870385,37.49649 L87.84221,37.49649 L87.2454046,34.3979666 L98.6002095,21.3531832 L92.1438596,21.3531832 L91.2292747,24.5601549 L86.9663786,24.1031227 L87.702697,16.8680707 L105.839382,16.8680707 L106.296675,19.966594 L94.848861,33.0113774 L101.537732,33.0113774 L102.498822,29.8044057 Z M72.8988217,16.4342774 C65.4813826,16.4342774 61.815292,21.4229 61.815292,27.4650206 C61.815292,34.0881143 66.2332024,37.9612685 72.5810422,37.9612685 C79.1769049,37.9612685 83.9358471,33.7937545 83.9358471,27.2016461 C83.9358471,21.4229 80.3162608,16.4342774 72.8988217,16.4342774 Z M72.7593087,33.4141854 C69.5505106,33.4141854 67.9073579,30.6642459 67.9073579,27.1009441 C67.9073579,23.2277899 69.7830322,20.9658678 72.805813,20.9658678 C75.5960723,20.9658678 77.8437811,22.8404745 77.8437811,27.0079884 C77.8592825,30.9508594 75.8285939,33.4219317 72.7593087,33.4219317 L72.7593087,33.4141854 Z M56.4827965,33.0036311 L59.2575543,33.0036311 L59.2575543,37.49649 L50.5844986,37.49649 L50.5844986,25.8770274 C50.5844986,22.3059792 49.3908877,20.9348826 47.0579209,20.9348826 C44.2211574,20.9348826 43.0740508,22.9489228 43.0740508,25.8305495 L43.0740508,33.0191237 L45.8255564,33.0191237 L45.8255564,37.49649 L37.1680021,37.49649 L37.1680021,25.8770274 C37.1680021,22.2982329 36.0053941,20.91939 33.6414245,20.91939 C30.8046609,20.91939 29.6575543,22.9334302 29.6575543,25.8150569 L29.6575543,33.0036311 L33.5949201,33.0036311 L33.5949201,37.49649 L21,37.49649 L21,33.0113774 L23.7515056,33.0113774 L23.7515056,21.3376906 L21,21.3376906 L21,16.8448318 L29.6575543,16.8448318 L29.6575543,19.9433551 C30.9127125,17.6742419 33.3436885,16.3094709 35.9356376,16.4187848 C38.9119141,16.4187848 41.6634197,17.8363592 42.6710134,20.8574195 C43.7320352,18.087887 46.4413831,16.3024177 49.4063891,16.4187848 C53.118984,16.4187848 56.5060487,18.6652142 56.5060487,23.5608811 L56.4827965,33.0036311 Z" id="Shape" fill="#FFFFFF"></path>
                <path d="M206.389499,37.5612736 C203.496994,37.5612736 200.837756,36.3483895 199.438156,33.9692706 L199.438156,44.8541281 L204.523367,44.8541281 L204.523367,47 L193,47 L193,44.8852277 L196.887776,44.8852277 L196.887776,18.5749722 L193,18.5749722 L193,16.3824509 L199.48481,16.3824509 L199.48481,20.8141429 C200.744449,18.3261755 203.030461,15.993706 206.856032,15.993706 C212.174509,15.993706 215.813467,19.7723066 215.813467,26.1632729 C215.813467,31.5435024 213.247535,37.5612736 206.389499,37.5612736 Z M206.389499,18.2484265 C202.501723,18.2484265 199.578116,22.2136246 199.438156,25.2924843 L199.438156,28.977786 C199.46881,30.6790531 200.174235,32.298431 201.399184,33.4795326 C202.624132,34.6606343 204.26822,35.3066668 205.969619,35.2754535 C211.148136,35.2754535 213.107575,30.8437616 213.107575,26.3654202 C213.107575,21.0940392 210.21507,18.2484265 206.389499,18.2484265 Z M234.536994,37.0947797 L234.536994,32.9896335 C233.202443,35.8171301 230.338965,37.6043741 227.212425,37.5612736 C223.106934,37.5612736 220.027816,35.1821548 220.027816,29.4909293 L220.027816,18.6060718 L216.202244,18.6060718 L216.202244,16.3824509 L222.593747,16.3824509 L222.593747,28.8844872 C222.593747,33.5960755 224.833106,35.2754535 227.958878,35.2754535 C231.691142,35.2754535 234.397034,31.6368012 234.536994,28.6512403 L234.536994,18.5438726 L229.96497,18.5438726 L229.96497,16.3824509 L237.102926,16.3824509 L237.102926,34.9489078 L240.990701,34.9489078 L240.990701,37.0947797 L234.536994,37.0947797 Z M242.063727,37.0947797 L242.063727,34.9489078 L245.889299,34.9489078 L245.889299,7.1458719 L242.001523,7.1458719 L242.001523,5 L248.439679,5 L248.439679,34.9489078 L252.265251,34.9489078 L252.265251,37.0947797 L242.063727,37.0947797 Z M262.373467,37.5612736 C259.480962,37.5612736 257.381563,36.6282858 256.261884,35.1355054 L256.261884,37.3280267 L253.975872,37.3280267 L253.975872,30.890411 L256.261884,30.890411 C256.261884,33.9226213 258.501242,35.2754535 261.906934,35.2754535 C265.017154,35.2754535 267.34982,34.1092188 267.34982,31.496853 C267.34982,25.2769345 254.24024,29.8641244 254.24024,21.8870789 C254.24024,17.6886338 257.879198,15.9626064 261.518156,15.9626064 C264.037435,15.9626064 265.810261,16.8022954 266.836633,18.2484265 L266.836633,16.2891522 L269.122645,16.2891522 L269.122645,22.7267679 L266.836633,22.7267679 C266.836633,19.5546094 265.110461,18.2484265 261.844729,18.2484265 C258.952224,18.2484265 256.946132,19.2747131 256.946132,21.6071825 C256.946132,27.4850056 269.962405,22.9133654 269.962405,31.2169567 C269.946854,35.088856 267.147655,37.5612736 262.373467,37.5612736 Z M281.602405,37.5612736 C275.817395,37.5612736 272.038477,33.6738245 272.038477,27.0185117 C272.038477,20.580896 275.591904,15.993706 281.322485,15.993706 C287.053066,15.993706 289.813387,20.3320992 289.813387,25.0903369 C289.802688,25.8730781 289.724644,26.6534467 289.58012,27.4228064 L274.744369,27.4228064 C274.884329,32.414291 277.403607,35.3065531 281.789018,35.3065531 C285.054749,35.3065531 287.107495,33.7515735 287.853948,30.8282118 L290,31.3413551 C289.393507,34.8089596 286.477675,37.5612736 281.602405,37.5612736 Z M281.182525,18.2484265 C277.030381,18.2484265 275.210902,21.5138837 274.791022,25.2458349 L287.107495,25.2458349 C287.434068,21.9337282 285.567936,18.2484265 281.182525,18.2484265 Z" id="Shape" fill="#000000"></path>
            </g>
        </g>
    </g>
</svg>