<?xml version="1.0" encoding="UTF-8"?>
<svg width="476px" height="62px" viewBox="0 0 476 62" version="1.1" xmlns="http://www.w3.org/2000/svg" xmlns:xlink="http://www.w3.org/1999/xlink">
    <!-- Generator: Sketch 51.2 (57519) - http://www.bohemiancoding.com/sketch -->
    <title>pulseapi-logo</title>
    <desc>Created with Sketch.</desc>
    <defs></defs>
    <g id="Page-1" stroke="none" stroke-width="1" fill="none" fill-rule="evenodd">
        <g id="pulseapi-logo" fill-rule="nonzero">
            <polygon id="Shape-path" fill="#FFFFFF" points="0 0.97 475.87 0.97 475.87 61.89 0 61.89"></polygon>
            <polygon id="Shape" fill="#000000" points="15 1 228.04 1 228.04 61.92 15 61.92"></polygon>
            <path d="M218.48,44.73 C218.117113,44.8429015 217.739989,44.9035108 217.36,44.91 C216.12,44.91 215.53,44.38 215.53,42.84 L215.53,31.25 C215.53,25.16 210.68,22.25 204.95,22.25 C200.58,22.25 198.21,22.78 193.55,24.67 L192.55,30.8 L198.64,31.45 L199.5,28.45 C200.772393,27.8505549 202.176649,27.5855359 203.58,27.68 C207.89,27.68 207.95,30.93 207.95,33.68 L207.95,34.57 C206.499798,34.3985483 205.040256,34.3183904 203.58,34.33 C197.49,34.33 191.17,35.87 191.17,42.43 C191.17,47.98 195.54,50.05 199.38,50.05 C203.009885,50.0296539 206.321285,47.9740356 207.95,44.73 C208.3,47.98 210.26,50.05 213.8,50.05 C215.473702,50.0320053 217.117804,49.6063924 218.59,48.81 L218.48,44.73 Z M202.11,44.55 C201.265055,44.6525684 200.419505,44.3638315 199.81377,43.7658873 C199.208035,43.1679431 198.908378,42.3262018 199,41.48 C199,38.58 201.36,37.82 204.08,37.82 C205.366502,37.8486353 206.64952,37.965577 207.92,38.17 C207.73,42.6 204.83,44.55 202.11,44.55 Z M191.88,8.74 L180.36,49.4 L172.86,49.4 L184.37,8.74 L191.88,8.74 Z M176.4,8.74 L164.87,49.4 L157.37,49.4 L168.89,8.74 L176.4,8.74 Z M144.4,22.74 L152.4,22.74 L152.4,32.31 L144.4,32.31 L144.4,22.74 Z M144.4,39.82 L152.4,39.82 L152.4,49.4 L144.4,49.4 L144.4,39.82 Z M132.79,39.47 L138.79,40.06 L137.14,49.4 L113.88,49.4 L113.11,45.4 L127.76,28.56 L119.43,28.56 L118.25,32.7 L112.75,32.11 L113.7,22.77 L137.1,22.77 L137.69,26.77 L122.92,43.61 L131.55,43.61 L132.79,39.47 Z M94.6,22.21 C85.03,22.21 80.3,28.65 80.3,36.45 C80.3,45 86,50 94.19,50 C102.7,50 108.84,44.62 108.84,36.11 C108.84,28.65 104.17,22.21 94.6,22.21 Z M94.42,44.13 C90.28,44.13 88.16,40.58 88.16,35.98 C88.16,30.98 90.58,28.06 94.48,28.06 C98.08,28.06 100.98,30.48 100.98,35.86 C101,40.95 98.38,44.14 94.42,44.14 L94.42,44.13 Z M73.42,43.6 L77,43.6 L77,49.4 L65.81,49.4 L65.81,34.4 C65.81,29.79 64.27,28.02 61.26,28.02 C57.6,28.02 56.12,30.62 56.12,34.34 L56.12,43.62 L59.67,43.62 L59.67,49.4 L48.5,49.4 L48.5,34.4 C48.5,29.78 47,28 43.95,28 C40.29,28 38.81,30.6 38.81,34.32 L38.81,43.6 L43.89,43.6 L43.89,49.4 L27.64,49.4 L27.64,43.61 L31.19,43.61 L31.19,28.54 L27.64,28.54 L27.64,22.74 L38.81,22.74 L38.81,26.74 C40.4294084,23.8107167 43.5658603,22.0488826 46.91,22.19 C50.75,22.19 54.3,24.02 55.6,27.92 C56.9689332,24.3447066 60.4645413,22.0397774 64.29,22.19 C69.08,22.19 73.45,25.09 73.45,31.41 L73.42,43.6 Z" id="Shape" fill="#FFFFFF"></path>
            <path d="M267,49.74 C263.28,49.74 259.86,48.18 258.06,45.12 L258.06,59.12 L264.6,59.12 L264.6,61.88 L249.78,61.88 L249.78,59.16 L254.78,59.16 L254.78,25.32 L249.78,25.32 L249.78,22.5 L258.12,22.5 L258.12,28.2 C259.74,25 262.68,22 267.6,22 C274.44,22 279.12,26.86 279.12,35.08 C279.12,42 275.82,49.74 267,49.74 Z M267,24.9 C262,24.9 258.24,30 258.06,33.96 L258.06,38.7 C258.099423,40.8881535 259.006658,42.970982 260.582043,44.4901036 C262.157428,46.0092253 264.27186,46.8401462 266.46,46.8 C273.12,46.8 275.64,41.1 275.64,35.34 C275.64,28.56 271.92,24.9 267,24.9 Z M303.2,49.14 L303.2,43.86 C301.483657,47.4966992 297.800988,49.7954355 293.78,49.74 C288.5,49.74 284.54,46.68 284.54,39.36 L284.54,25.36 L279.62,25.36 L279.62,22.5 L287.84,22.5 L287.84,38.58 C287.84,44.64 290.72,46.8 294.74,46.8 C299.54,46.8 303.02,42.12 303.2,38.28 L303.2,25.28 L297.32,25.28 L297.32,22.5 L306.5,22.5 L306.5,46.38 L311.5,46.38 L311.5,49.14 L303.2,49.14 Z M312.88,49.14 L312.88,46.38 L317.8,46.38 L317.8,10.62 L312.8,10.62 L312.8,7.86 L321.08,7.86 L321.08,46.38 L326,46.38 L326,49.14 L312.88,49.14 Z M339,49.74 C335.28,49.74 332.58,48.54 331.14,46.62 L331.14,49.44 L328.2,49.44 L328.2,41.16 L331.14,41.16 C331.14,45.06 334.02,46.8 338.4,46.8 C342.4,46.8 345.4,45.3 345.4,41.94 C345.4,33.94 328.54,39.84 328.54,29.58 C328.54,24.18 333.22,21.96 337.9,21.96 C341.14,21.96 343.42,23.04 344.74,24.9 L344.74,22.38 L347.68,22.38 L347.68,30.66 L344.74,30.66 C344.74,26.58 342.52,24.9 338.32,24.9 C334.6,24.9 332.02,26.22 332.02,29.22 C332.02,36.78 348.76,30.9 348.76,41.58 C348.74,46.56 345.14,49.74 339,49.74 Z M363.73,49.74 C356.29,49.74 351.43,44.74 351.43,36.18 C351.43,27.9 356,22 363.37,22 C370.74,22 374.29,27.58 374.29,33.7 C374.276241,34.7067542 374.17587,35.7104569 373.99,36.7 L354.91,36.7 C355.09,43.12 358.33,46.84 363.97,46.84 C368.17,46.84 370.81,44.84 371.77,41.08 L374.53,41.74 C373.75,46.2 370,49.74 363.73,49.74 Z M363.19,24.9 C357.85,24.9 355.51,29.1 354.97,33.9 L370.81,33.9 C371.23,29.64 368.83,24.9 363.19,24.9 Z M415.468,49 L402.534,49 L402.534,46.042 L408.102,46.042 L405.028,37.864 L388.034,37.864 L384.786,46.042 L390.76,46.042 L390.76,49 L377.884,49 L377.884,46.042 L381.422,46.042 L394.182,14.258 L387.976,14.258 L387.976,11.3 L398.126,11.3 L411.64,46.042 L415.468,46.042 L415.468,49 Z M404.042,35.196 L396.85,16.172 L396.56,16.172 L389.078,35.196 L404.042,35.196 Z M444.918,22.61 C444.918,26.476686 443.777345,29.4346564 441.496,31.484 C439.214655,33.5333436 436.218019,34.558 432.506,34.558 L424.734,34.558 L424.734,46.042 L431.404,46.042 L431.404,49 L416.498,49 L416.498,46.042 L421.428,46.042 L421.428,14.258 L416.498,14.258 L416.498,11.3 L432.158,11.3 C436.83669,11.3 440.13299,12.4503218 442.047,14.751 C443.96101,17.0516782 444.918,19.6713186 444.918,22.61 Z M441.438,22.726 C441.438,20.1353204 440.664674,18.076341 439.118,16.549 C437.571326,15.021659 435.193349,14.258 431.984,14.258 L424.734,14.258 L424.734,31.658 L432.216,31.658 C435.077348,31.658 437.329658,30.8846744 438.973,29.338 C440.616342,27.7913256 441.438,25.5873476 441.438,22.726 Z M461.55,49 L448.384,49 L448.384,46.042 L453.314,46.042 L453.314,14.258 L448.384,14.258 L448.384,11.3 L461.55,11.3 L461.55,14.258 L456.678,14.258 L456.678,46.042 L461.55,46.042 L461.55,49 Z" id="Shape" fill="#000000"></path>
        </g>
    </g>
</svg>